<svg width="150" height="32" viewBox="0 0 150 32" fill="none" xmlns="http://www.w3.org/2000/svg">
<path d="M14.88 31.48C12.7467 31.48 10.7733 31.0933 8.96 30.32C7.17333 29.5467 5.6 28.4667 4.24 27.08C2.90667 25.6933 1.86667 24.0667 1.12 22.2C0.373333 20.3333 2.98023e-08 18.2933 2.98023e-08 16.08C2.98023e-08 13.8667 0.36 11.8267 1.08 9.96C1.82667 8.06667 2.86667 6.44 4.2 5.08C5.56 3.69333 7.14667 2.62666 8.96 1.88C10.7733 1.10667 12.7467 0.719999 14.88 0.719999C17.0133 0.719999 18.92 1.08 20.6 1.8C22.3067 2.52 23.7467 3.48 24.92 4.68C26.0933 5.85333 26.9333 7.14667 27.44 8.56L22.56 10.84C22 9.34667 21.0533 8.12 19.72 7.16C18.3867 6.17333 16.7733 5.68 14.88 5.68C13.0133 5.68 11.36 6.12 9.92 7C8.50667 7.88 7.4 9.09333 6.6 10.64C5.82667 12.1867 5.44 14 5.44 16.08C5.44 18.16 5.82667 19.9867 6.6 21.56C7.4 23.1067 8.50667 24.32 9.92 25.2C11.36 26.08 13.0133 26.52 14.88 26.52C16.7733 26.52 18.3867 26.04 19.72 25.08C21.0533 24.0933 22 22.8533 22.56 21.36L27.44 23.64C26.9333 25.0533 26.0933 26.36 24.92 27.56C23.7467 28.7333 22.3067 29.68 20.6 30.4C18.92 31.12 17.0133 31.48 14.88 31.48ZM39.1766 31.48C37.4966 31.48 36.0299 31.1067 34.7766 30.36C33.5499 29.6133 32.6032 28.5733 31.9366 27.24C31.2966 25.9067 30.9766 24.3467 30.9766 22.56V9.24H36.2166V22.12C36.2166 23.0267 36.3899 23.8267 36.7366 24.52C37.1099 25.1867 37.6299 25.72 38.2966 26.12C38.9899 26.4933 39.7632 26.68 40.6166 26.68C41.4699 26.68 42.2299 26.4933 42.8966 26.12C43.5632 25.72 44.0832 25.1733 44.4566 24.48C44.8299 23.7867 45.0166 22.96 45.0166 22V9.24H50.2566V31H45.2966V26.72L45.7366 27.48C45.2299 28.8133 44.3899 29.8133 43.2166 30.48C42.0699 31.1467 40.7232 31.48 39.1766 31.48ZM55.1275 31V9.24H60.0475V14.08L59.6475 13.36C60.1542 11.7333 60.9408 10.6 62.0075 9.96C63.1008 9.32 64.4075 9 65.9275 9H67.2075V13.64H65.3275C63.8342 13.64 62.6342 14.1067 61.7275 15.04C60.8208 15.9467 60.3675 17.2267 60.3675 18.88V31H55.1275ZM70.0884 31V9.24H75.3284V31H70.0884ZM70.0884 6.8V1.2H75.3284V6.8H70.0884ZM90.8066 31.48C88.6732 31.48 86.7266 30.9867 84.9666 30C83.2332 29.0133 81.8466 27.6667 80.8066 25.96C79.7932 24.2533 79.2866 22.3067 79.2866 20.12C79.2866 17.9333 79.7932 15.9867 80.8066 14.28C81.8466 12.5733 83.2332 11.2267 84.9666 10.24C86.6999 9.25333 88.6466 8.76 90.8066 8.76C92.9399 8.76 94.8732 9.25333 96.6066 10.24C98.3399 11.2267 99.7132 12.5733 100.727 14.28C101.767 15.96 102.287 17.9067 102.287 20.12C102.287 22.3067 101.767 24.2533 100.727 25.96C99.6866 27.6667 98.2999 29.0133 96.5666 30C94.8332 30.9867 92.9132 31.48 90.8066 31.48ZM90.8066 26.68C91.9799 26.68 93.0066 26.4 93.8866 25.84C94.7932 25.28 95.4999 24.5067 96.0066 23.52C96.5399 22.5067 96.8066 21.3733 96.8066 20.12C96.8066 18.84 96.5399 17.72 96.0066 16.76C95.4999 15.7733 94.7932 15 93.8866 14.44C93.0066 13.8533 91.9799 13.56 90.8066 13.56C89.6066 13.56 88.5532 13.8533 87.6466 14.44C86.7399 15 86.0199 15.7733 85.4866 16.76C84.9799 17.72 84.7266 18.84 84.7266 20.12C84.7266 21.3733 84.9799 22.5067 85.4866 23.52C86.0199 24.5067 86.7399 25.28 87.6466 25.84C88.5532 26.4 89.6066 26.68 90.8066 26.68ZM108.74 31V25.4H114.02V31H108.74ZM127.978 31.48C126.458 31.48 125.138 31.2267 124.018 30.72C122.898 30.2133 122.031 29.4933 121.418 28.56C120.804 27.6 120.498 26.4933 120.498 25.24C120.498 24.04 120.764 22.9733 121.298 22.04C121.831 21.08 122.658 20.28 123.778 19.64C124.898 19 126.311 18.5467 128.018 18.28L135.138 17.12V21.12L129.018 22.16C127.978 22.3467 127.204 22.68 126.698 23.16C126.191 23.64 125.938 24.2667 125.938 25.04C125.938 25.7867 126.218 26.3867 126.778 26.84C127.364 27.2667 128.084 27.48 128.938 27.48C130.031 27.48 130.991 27.2533 131.818 26.8C132.671 26.32 133.324 25.6667 133.778 24.84C134.258 24.0133 134.498 23.1067 134.498 22.12V16.52C134.498 15.5867 134.124 14.8133 133.378 14.2C132.658 13.56 131.698 13.24 130.498 13.24C129.378 13.24 128.378 13.5467 127.498 14.16C126.644 14.7467 126.018 15.5333 125.618 16.52L121.338 14.44C121.764 13.2933 122.431 12.3067 123.338 11.48C124.271 10.6267 125.364 9.96 126.618 9.48C127.871 9 129.231 8.76 130.697 8.76C132.484 8.76 134.058 9.09333 135.418 9.76C136.778 10.4 137.831 11.3067 138.578 12.48C139.351 13.6267 139.738 14.9733 139.738 16.52V31H134.778V27.28L135.898 27.2C135.338 28.1333 134.671 28.92 133.898 29.56C133.124 30.1733 132.244 30.6533 131.258 31C130.271 31.32 129.178 31.48 127.978 31.48ZM144.581 31V9.24H149.821V31H144.581ZM144.581 6.8V1.2H149.821V6.8H144.581Z" fill="#1B2559"/>
</svg>
