<svg width="40" height="40" viewBox="0 0 40 40" fill="none" xmlns="http://www.w3.org/2000/svg">
<path d="M9.23331 32.5333C8.21664 32.5333 7.26664 32.1833 6.58331 31.5333C5.71664 30.7166 5.29998 29.4833 5.44998 28.1499L6.06664 22.7499C6.18331 21.7333 6.79998 20.3833 7.51664 19.6499L21.2 5.16659C24.6166 1.54992 28.1833 1.44992 31.8 4.86659C35.4166 8.28325 35.5166 11.8499 32.1 15.4666L18.4166 29.9499C17.7166 30.6999 16.4166 31.3999 15.4 31.5666L10.0333 32.4833C9.74998 32.4999 9.49998 32.5333 9.23331 32.5333ZM26.55 4.84992C25.2666 4.84992 24.15 5.64992 23.0166 6.84992L9.33331 21.3499C8.99998 21.6999 8.61664 22.5333 8.54998 23.0166L7.93331 28.4166C7.86664 28.9666 7.99998 29.4166 8.29998 29.6999C8.59998 29.9833 9.04998 30.0833 9.59998 29.9999L14.9666 29.0833C15.45 28.9999 16.25 28.5666 16.5833 28.2166L30.2666 13.7333C32.3333 11.5333 33.0833 9.49992 30.0666 6.66659C28.7333 5.38325 27.5833 4.84992 26.55 4.84992Z" fill="#258EC8"/>
<path d="M28.9 18.2501C28.8667 18.2501 28.8167 18.2501 28.7834 18.2501C23.5834 17.7334 19.4 13.7834 18.6 8.61674C18.5 7.93341 18.9667 7.30007 19.65 7.18341C20.3334 7.08341 20.9667 7.55007 21.0834 8.23341C21.7167 12.2667 24.9834 15.3667 29.05 15.7667C29.7334 15.8334 30.2334 16.4501 30.1667 17.1334C30.0834 17.7667 29.5334 18.2501 28.9 18.2501Z" fill="#258EC8"/>
<path d="M35 37.9167H5C4.31667 37.9167 3.75 37.3501 3.75 36.6667C3.75 35.9834 4.31667 35.4167 5 35.4167H35C35.6833 35.4167 36.25 35.9834 36.25 36.6667C36.25 37.3501 35.6833 37.9167 35 37.9167Z" fill="#258EC8"/>
</svg>
