<svg width="35" height="36" viewBox="0 0 35 36" fill="none" xmlns="http://www.w3.org/2000/svg">
<circle cx="17.3968" cy="18.0506" r="16.4561" fill="white" stroke="#15cb19" stroke-width="1.28229"/>
<path d="M12.7948 23.4075C12.3602 23.4075 11.9541 23.2579 11.6621 22.9801C11.2916 22.631 11.1135 22.1039 11.1776 21.534L11.4412 19.2258C11.4911 18.7913 11.7547 18.2143 12.061 17.9008L17.9097 11.7102C19.3701 10.1643 20.8946 10.1216 22.4404 11.582C23.9863 13.0424 24.029 14.5669 22.5687 16.1127L16.72 22.3033C16.4208 22.6239 15.8651 22.9231 15.4306 22.9944L13.1367 23.3862C13.0156 23.3933 12.9087 23.4075 12.7948 23.4075ZM20.1964 11.5748C19.6479 11.5748 19.1706 11.9168 18.6862 12.4297L12.8375 18.6274C12.695 18.777 12.5312 19.1332 12.5027 19.3398L12.2391 21.6479C12.2106 21.883 12.2676 22.0754 12.3958 22.1965C12.524 22.3176 12.7164 22.3603 12.9515 22.3247L15.2454 21.9329C15.4519 21.8973 15.7939 21.7121 15.9364 21.5625L21.785 15.3718C22.6684 14.4315 22.989 13.5624 21.6995 12.3513C21.1296 11.8028 20.6381 11.5748 20.1964 11.5748Z" fill="#15cb19"/>
<path d="M21.2008 17.3026C21.1865 17.3026 21.1652 17.3026 21.1509 17.3026C18.9283 17.0818 17.1402 15.3935 16.7982 13.1851C16.7555 12.893 16.955 12.6223 17.247 12.5724C17.5391 12.5297 17.8098 12.7291 17.8597 13.0212C18.1304 14.7452 19.5267 16.0702 21.2649 16.2412C21.557 16.2697 21.7707 16.5333 21.7422 16.8253C21.7066 17.096 21.4715 17.3026 21.2008 17.3026Z" fill="#15cb19"/>
<path d="M23.8081 25.7087H10.9852C10.6931 25.7087 10.4509 25.4665 10.4509 25.1744C10.4509 24.8823 10.6931 24.6401 10.9852 24.6401H23.8081C24.1002 24.6401 24.3424 24.8823 24.3424 25.1744C24.3424 25.4665 24.1002 25.7087 23.8081 25.7087Z" fill="#15cb19"/>
</svg>
