<svg width="40" height="40" viewBox="0 0 40 40" fill="none" xmlns="http://www.w3.org/2000/svg">
<path d="M13.3332 24.5833C13.0165 24.5833 12.6999 24.4667 12.4499 24.2167L9.11653 20.8834C8.6332 20.4 8.6332 19.5999 9.11653 19.1166L12.4499 15.7833C12.9332 15.2999 13.7332 15.2999 14.2165 15.7833C14.6999 16.2666 14.6999 17.0667 14.2165 17.55L11.7665 20L14.2165 22.4499C14.6999 22.9333 14.6999 23.7334 14.2165 24.2167C13.9665 24.4667 13.6499 24.5833 13.3332 24.5833Z" fill="#258EC8"/>
<path d="M26.6666 24.5833C26.3499 24.5833 26.0333 24.4667 25.7833 24.2167C25.2999 23.7334 25.2999 22.9333 25.7833 22.4499L28.2333 20L25.7833 17.55C25.2999 17.0667 25.2999 16.2666 25.7833 15.7833C26.2666 15.2999 27.0666 15.2999 27.5499 15.7833L30.8833 19.1166C31.3666 19.5999 31.3666 20.4 30.8833 20.8834L27.5499 24.2167C27.2999 24.4667 26.9833 24.5833 26.6666 24.5833Z" fill="#258EC8"/>
<path d="M20 37.9167C10.1167 37.9167 2.08337 29.8834 2.08337 20C2.08337 10.1167 10.1167 2.08337 20 2.08337C29.8834 2.08337 37.9167 10.1167 37.9167 20C37.9167 29.8834 29.8834 37.9167 20 37.9167ZM20 4.58337C11.5 4.58337 4.58337 11.5 4.58337 20C4.58337 28.5 11.5 35.4167 20 35.4167C28.5 35.4167 35.4167 28.5 35.4167 20C35.4167 11.5 28.5 4.58337 20 4.58337Z" fill="#258EC8"/>
<path d="M18.3336 25.1334C18.1669 25.1334 18.0002 25.1001 17.8502 25.0334C17.2169 24.7667 16.9169 24.0334 17.2002 23.3834L20.5336 15.6C20.8002 14.9667 21.5336 14.6667 22.1669 14.95C22.8002 15.2167 23.1002 15.9501 22.8169 16.6001L19.4836 24.3834C19.2836 24.8501 18.8169 25.1334 18.3336 25.1334Z" fill="#258EC8"/>
</svg>
