<svg width="35" height="36" viewBox="0 0 35 36" fill="none" xmlns="http://www.w3.org/2000/svg">
<circle cx="17.5447" cy="18.0652" r="16.4561" fill="white" stroke="#15cb19" stroke-width="1.28229"/>
<path d="M14.6951 20.0243C14.5597 20.0243 14.4244 19.9744 14.3175 19.8676L12.8927 18.4428C12.6861 18.2362 12.6861 17.8942 12.8927 17.6876L14.3175 16.2629C14.5241 16.0563 14.866 16.0563 15.0726 16.2629C15.2792 16.4694 15.2792 16.8114 15.0726 17.018L14.0254 18.0652L15.0726 19.1124C15.2792 19.319 15.2792 19.661 15.0726 19.8676C14.9658 19.9744 14.8304 20.0243 14.6951 20.0243Z" fill="#15cb19"/>
<path d="M20.3943 20.0243C20.259 20.0243 20.1236 19.9744 20.0168 19.8676C19.8102 19.661 19.8102 19.319 20.0168 19.1124L21.064 18.0652L20.0168 17.018C19.8102 16.8114 19.8102 16.4694 20.0168 16.2629C20.2234 16.0563 20.5653 16.0563 20.7719 16.2629L22.1967 17.6876C22.4032 17.8942 22.4032 18.2362 22.1967 18.4428L20.7719 19.8676C20.665 19.9744 20.5297 20.0243 20.3943 20.0243Z" fill="#15cb19"/>
<path d="M17.5448 25.7232C13.3204 25.7232 9.88672 22.2895 9.88672 18.0651C9.88672 13.8407 13.3204 10.407 17.5448 10.407C21.7693 10.407 25.203 13.8407 25.203 18.0651C25.203 22.2895 21.7693 25.7232 17.5448 25.7232ZM17.5448 11.4756C13.9117 11.4756 10.9553 14.4319 10.9553 18.0651C10.9553 21.6983 13.9117 24.6547 17.5448 24.6547C21.178 24.6547 24.1344 21.6983 24.1344 18.0651C24.1344 14.4319 21.178 11.4756 17.5448 11.4756Z" fill="#15cb19"/>
<path d="M16.8324 20.2593C16.7612 20.2593 16.69 20.2451 16.6259 20.2166C16.3552 20.1026 16.2269 19.7892 16.348 19.5113L17.7728 16.1845C17.8868 15.9138 18.2002 15.7855 18.4709 15.9066C18.7416 16.0206 18.8699 16.3341 18.7488 16.6119L17.324 19.9387C17.2385 20.1382 17.039 20.2593 16.8324 20.2593Z" fill="#15cb19"/>
</svg>
