<svg width="16" height="16" viewBox="0 0 16 16" fill="none" xmlns="http://www.w3.org/2000/svg">
<path d="M6.00012 11.8334C5.72679 11.8334 5.50012 11.6067 5.50012 11.3334V8.54003L5.02012 9.02003C4.82679 9.21337 4.50679 9.21337 4.31346 9.02003C4.12012 8.8267 4.12012 8.5067 4.31346 8.31337L5.64679 6.98003C5.78679 6.84003 6.00679 6.79337 6.19346 6.87337C6.38012 6.9467 6.50012 7.13337 6.50012 7.33337V11.3334C6.50012 11.6067 6.27346 11.8334 6.00012 11.8334Z" fill="#3bd176"/>
<path d="M7.33313 9.16663C7.20646 9.16663 7.0798 9.11996 6.9798 9.01996L5.64646 7.68663C5.45313 7.49329 5.45313 7.17329 5.64646 6.97996C5.8398 6.78663 6.1598 6.78663 6.35313 6.97996L7.68646 8.31329C7.8798 8.50663 7.8798 8.82663 7.68646 9.01996C7.58646 9.11996 7.4598 9.16663 7.33313 9.16663Z" fill="#3bd176"/>
<path d="M10.0002 15.1667H6.00016C2.38016 15.1667 0.833496 13.62 0.833496 10V6.00004C0.833496 2.38004 2.38016 0.833374 6.00016 0.833374H9.3335C9.60683 0.833374 9.8335 1.06004 9.8335 1.33337C9.8335 1.60671 9.60683 1.83337 9.3335 1.83337H6.00016C2.92683 1.83337 1.8335 2.92671 1.8335 6.00004V10C1.8335 13.0734 2.92683 14.1667 6.00016 14.1667H10.0002C13.0735 14.1667 14.1668 13.0734 14.1668 10V6.66671C14.1668 6.39337 14.3935 6.16671 14.6668 6.16671C14.9402 6.16671 15.1668 6.39337 15.1668 6.66671V10C15.1668 13.62 13.6202 15.1667 10.0002 15.1667Z" fill="#3bd176"/>
<path d="M14.6668 7.1667H12.0002C9.72016 7.1667 8.8335 6.28003 8.8335 4.00003V1.33337C8.8335 1.13337 8.9535 0.9467 9.14016 0.873366C9.32683 0.793366 9.54016 0.840033 9.68683 0.980033L15.0202 6.31337C15.1602 6.45337 15.2068 6.67337 15.1268 6.86003C15.0468 7.0467 14.8668 7.1667 14.6668 7.1667ZM9.8335 2.54003V4.00003C9.8335 5.72003 10.2802 6.1667 12.0002 6.1667H13.4602L9.8335 2.54003Z" fill="#3bd176"/>
</svg>
