<svg width="35" height="36" viewBox="0 0 35 36" fill="none" xmlns="http://www.w3.org/2000/svg">
<circle cx="17.3103" cy="18.0506" r="16.4561" fill="white" stroke="#15cb19" stroke-width="1.28229"/>
<path d="M19.4475 18.7273H14.4608C14.1687 18.7273 13.9265 18.4851 13.9265 18.193C13.9265 17.9009 14.1687 17.6587 14.4608 17.6587H19.4475C19.7396 17.6587 19.9818 17.9009 19.9818 18.193C19.9818 18.4851 19.7396 18.7273 19.4475 18.7273Z" fill="#15cb19"/>
<path d="M17.581 21.5769H14.4608C14.1687 21.5769 13.9265 21.3347 13.9265 21.0426C13.9265 20.7505 14.1687 20.5083 14.4608 20.5083H17.581C17.8731 20.5083 18.1153 20.7505 18.1153 21.0426C18.1153 21.3347 17.8731 21.5769 17.581 21.5769Z" fill="#15cb19"/>
<path d="M18.7351 14.3104H15.8856C15.2017 14.3104 13.9265 14.3104 13.9265 12.3514C13.9265 10.3923 15.2017 10.3923 15.8856 10.3923H18.7351C19.419 10.3923 20.6942 10.3923 20.6942 12.3514C20.6942 13.0353 20.6942 14.3104 18.7351 14.3104ZM15.8856 11.4609C15.1803 11.4609 14.9951 11.4609 14.9951 12.3514C14.9951 13.2419 15.1803 13.2419 15.8856 13.2419H18.7351C19.6256 13.2419 19.6256 13.0566 19.6256 12.3514C19.6256 11.4609 19.4404 11.4609 18.7351 11.4609H15.8856Z" fill="#15cb19"/>
<path d="M19.4474 25.7087H15.1731C11.1695 25.7087 10.3645 23.8707 10.3645 20.9001V16.6258C10.3645 13.3773 11.5399 11.9882 14.4322 11.8386C14.7172 11.8243 14.9807 12.0452 14.995 12.3444C15.0092 12.6436 14.7813 12.8858 14.4892 12.9C12.466 13.014 11.4331 13.6195 11.4331 16.6258V20.9001C11.4331 23.5359 11.9531 24.6401 15.1731 24.6401H19.4474C22.6674 24.6401 23.1874 23.5359 23.1874 20.9001V16.6258C23.1874 13.6195 22.1544 13.014 20.1313 12.9C19.8392 12.8858 19.6112 12.6293 19.6255 12.3372C19.6397 12.0452 19.8962 11.8172 20.1883 11.8314C23.0805 11.9882 24.256 13.3773 24.256 16.6187V20.893C24.256 23.8707 23.451 25.7087 19.4474 25.7087Z" fill="#15cb19"/>
</svg>
