<svg width="40" height="40" viewBox="0 0 40 40" fill="none" xmlns="http://www.w3.org/2000/svg">
<path d="M24.9999 21.5833H13.3333C12.6499 21.5833 12.0833 21.0166 12.0833 20.3333C12.0833 19.6499 12.6499 19.0833 13.3333 19.0833H24.9999C25.6833 19.0833 26.2499 19.6499 26.2499 20.3333C26.2499 21.0166 25.6833 21.5833 24.9999 21.5833Z" fill="#258EC8"/>
<path d="M20.6333 28.25H13.3333C12.6499 28.25 12.0833 27.6833 12.0833 27C12.0833 26.3167 12.6499 25.75 13.3333 25.75H20.6333C21.3166 25.75 21.8833 26.3167 21.8833 27C21.8833 27.6833 21.3166 28.25 20.6333 28.25Z" fill="#258EC8"/>
<path d="M23.3333 11.2499H16.6666C15.0666 11.2499 12.0833 11.2499 12.0833 6.66659C12.0833 2.08325 15.0666 2.08325 16.6666 2.08325H23.3333C24.9333 2.08325 27.9166 2.08325 27.9166 6.66659C27.9166 8.26659 27.9166 11.2499 23.3333 11.2499ZM16.6666 4.58325C15.0166 4.58325 14.5833 4.58325 14.5833 6.66659C14.5833 8.74992 15.0166 8.74992 16.6666 8.74992H23.3333C25.4166 8.74992 25.4166 8.31659 25.4166 6.66659C25.4166 4.58325 24.9833 4.58325 23.3333 4.58325H16.6666Z" fill="#258EC8"/>
<path d="M25 37.9166H15C5.63333 37.9166 3.75 33.6166 3.75 26.6666V16.6666C3.75 9.06663 6.5 5.81663 13.2667 5.46663C13.9333 5.4333 14.55 5.94997 14.5833 6.64997C14.6167 7.34997 14.0833 7.91663 13.4 7.94997C8.66667 8.21663 6.25 9.6333 6.25 16.6666V26.6666C6.25 32.8333 7.46667 35.4166 15 35.4166H25C32.5333 35.4166 33.75 32.8333 33.75 26.6666V16.6666C33.75 9.6333 31.3333 8.21663 26.6 7.94997C25.9167 7.91663 25.3833 7.31663 25.4167 6.6333C25.45 5.94997 26.05 5.41663 26.7333 5.44997C33.5 5.81663 36.25 9.06663 36.25 16.65V26.65C36.25 33.6166 34.3667 37.9166 25 37.9166Z" fill="#258EC8"/>
</svg>
