<svg width="36" height="36" viewBox="0 0 36 36" fill="none" xmlns="http://www.w3.org/2000/svg">
<circle cx="18.0332" cy="18.0652" r="16.4561" fill="white" stroke="#15cb19" stroke-width="1.28229"/>
<path d="M21.5953 25.7232H14.4714C11.3298 25.7232 10.3752 24.7686 10.3752 21.627V14.5032C10.3752 11.3616 11.3298 10.407 14.4714 10.407H15.54C16.7867 10.407 17.1785 10.813 17.6772 11.4756L18.7458 12.9003C18.9808 13.2138 19.0165 13.2565 19.4581 13.2565H21.5953C24.7369 13.2565 25.6915 14.2111 25.6915 17.3527V21.627C25.6915 24.7686 24.7369 25.7232 21.5953 25.7232ZM14.4714 11.4756C11.9211 11.4756 11.4438 11.96 11.4438 14.5032V21.627C11.4438 24.1702 11.9211 24.6547 14.4714 24.6547H21.5953C24.1456 24.6547 24.6229 24.1702 24.6229 21.627V17.3527C24.6229 14.8095 24.1456 14.3251 21.5953 14.3251H19.4581C18.5463 14.3251 18.2471 14.0116 17.8909 13.5415L16.8223 12.1167C16.4519 11.6252 16.3379 11.4756 15.54 11.4756H14.4714Z" fill="#15cb19"/>
<path d="M23.7323 14.5958C23.4402 14.5958 23.198 14.3536 23.198 14.0615V13.0784C23.198 11.9529 22.7207 11.4756 21.5952 11.4756H15.1837C14.8916 11.4756 14.6494 11.2333 14.6494 10.9413C14.6494 10.6492 14.8916 10.407 15.1837 10.407H21.5952C23.3191 10.407 24.2666 11.3545 24.2666 13.0784V14.0615C24.2666 14.3536 24.0244 14.5958 23.7323 14.5958Z" fill="#15cb19"/>
</svg>
