<svg width="40" height="40" viewBox="0 0 40 40" fill="none" xmlns="http://www.w3.org/2000/svg">
<path d="M28.3334 37.9167H11.6667C4.31671 37.9167 2.08337 35.6834 2.08337 28.3334V11.6667C2.08337 4.31671 4.31671 2.08337 11.6667 2.08337H14.1667C17.0834 2.08337 18 3.03337 19.1667 4.58337L21.6667 7.91671C22.2167 8.65004 22.3 8.75004 23.3334 8.75004H28.3334C35.6834 8.75004 37.9167 10.9834 37.9167 18.3334V28.3334C37.9167 35.6834 35.6834 37.9167 28.3334 37.9167ZM11.6667 4.58337C5.70004 4.58337 4.58337 5.71671 4.58337 11.6667V28.3334C4.58337 34.2834 5.70004 35.4167 11.6667 35.4167H28.3334C34.3 35.4167 35.4167 34.2834 35.4167 28.3334V18.3334C35.4167 12.3834 34.3 11.25 28.3334 11.25H23.3334C21.2 11.25 20.5 10.5167 19.6667 9.41671L17.1667 6.08337C16.3 4.93337 16.0334 4.58337 14.1667 4.58337H11.6667Z" fill="#258EC8"/>
<path d="M33.3334 11.8834C32.65 11.8834 32.0834 11.3167 32.0834 10.6334V8.33337C32.0834 5.70004 30.9667 4.58337 28.3334 4.58337H13.3334C12.65 4.58337 12.0834 4.01671 12.0834 3.33337C12.0834 2.65004 12.65 2.08337 13.3334 2.08337H28.3334C32.3667 2.08337 34.5834 4.30004 34.5834 8.33337V10.6334C34.5834 11.3167 34.0167 11.8834 33.3334 11.8834Z" fill="#258EC8"/>
</svg>
