<svg width="40" height="40" viewBox="0 0 40 40" fill="none" xmlns="http://www.w3.org/2000/svg">
<path d="M30.5333 21.25H25C20.85 21.25 18.75 18.9 18.75 14.25V9.46668C18.75 7.76668 18.95 5.33335 20.7167 4.00002C22.2 2.90002 24.3333 2.81668 27.4833 3.73335C31.6167 4.93335 35.0667 8.38335 36.2667 12.5167C37.1833 15.65 37.1 17.8 36 19.2667C34.6667 21.05 32.2333 21.25 30.5333 21.25ZM23.8 5.60002C23.1167 5.60002 22.5833 5.73335 22.2333 6.00002C21.5833 6.48335 21.2667 7.61668 21.2667 9.46668V14.2667C21.2667 18 22.7 18.7667 25.0167 18.7667H30.55C32.3833 18.7667 33.5167 18.45 34.0167 17.8C34.6 17.0333 34.55 15.5 33.9 13.25C32.9333 9.96668 30.1 7.11668 26.8167 6.16668C25.5833 5.78335 24.5833 5.60002 23.8 5.60002Z" fill="#258EC8"/>
<path d="M18.45 37.9167C17.5667 37.9167 16.6667 37.85 15.7667 37.7C8.95005 36.6 3.40005 31.0667 2.30005 24.25C0.883382 15.4833 6.53338 7.21667 15.1834 5.45001C15.8667 5.31667 16.5167 5.75001 16.6667 6.41667C16.8 7.10001 16.3667 7.75001 15.7 7.90001C8.38338 9.40001 3.58338 16.4 4.80005 23.85C5.73338 29.6167 10.4167 34.3 16.1834 35.2333C23.6667 36.4333 30.65 31.6167 32.1334 24.2667C32.2667 23.5833 32.9334 23.15 33.6 23.2833C34.2834 23.4167 34.7167 24.0833 34.5834 24.75C33 32.5333 26.2001 37.9167 18.45 37.9167Z" fill="#258EC8"/>
</svg>
