<svg width="35" height="36" viewBox="0 0 35 36" fill="none" xmlns="http://www.w3.org/2000/svg">
<circle cx="17.2969" cy="18.0652" r="16.4561" fill="white" stroke="#5379F6" stroke-width="1.28229"/>
<path d="M23.5709 14.6501L23.5706 14.6489C23.1763 13.3122 22.0507 12.1863 20.7141 11.7916C19.588 11.4642 19.0381 11.5651 18.7278 11.7967L23.5709 14.6501ZM23.5709 14.6501C23.9046 15.7737 23.7943 16.3154 23.5594 16.6158L23.5593 16.6157M23.5709 14.6501L23.5593 16.6157M23.5593 16.6157L23.5509 16.6269M23.5593 16.6157L23.5509 16.6269M23.5509 16.6269C23.4082 16.8178 23.1941 16.9452 22.9098 17.0246C22.6207 17.1053 22.2994 17.1247 21.9985 17.1247H19.954C19.2917 17.1247 18.8997 16.9401 18.6614 16.6739C18.4114 16.3947 18.23 15.9142 18.23 15.1229V13.3491C18.23 12.6861 18.3308 12.0936 18.7276 11.7969L23.5509 16.6269Z" fill="white" stroke="#5379F6" stroke-width="1.28229"/>
<path d="M21.7349 19.454L21.7348 19.454L21.742 19.4621C21.8012 19.528 21.8308 19.6192 21.8185 19.7148L21.8185 19.7151C21.6275 21.211 20.8044 22.5927 19.5628 23.495L19.5612 23.4962C18.6108 24.1915 17.4969 24.5479 16.3422 24.5479C15.9896 24.5479 15.64 24.5159 15.2925 24.4464L15.2925 24.4464L15.2855 24.445C13.0869 24.0308 11.331 22.2744 10.917 20.0834L10.917 20.0833C10.6286 18.5583 10.9613 17.0431 11.8667 15.7997L11.8671 15.7992C12.7694 14.5577 14.1511 13.7345 15.6469 13.5436L15.6494 13.5433C15.7374 13.5317 15.8348 13.5616 15.9 13.62L15.8999 13.6201L15.9081 13.6272C15.9797 13.6892 16.0217 13.7824 16.0217 13.8764V16.4268C16.0217 18.0346 17.3274 19.3404 18.9353 19.3404H21.4856C21.5797 19.3404 21.6728 19.3824 21.7349 19.454Z" fill="white" stroke="#5379F6" stroke-width="1.28229"/>
</svg>
