<svg width="16" height="16" viewBox="0 0 16 16" fill="none" xmlns="http://www.w3.org/2000/svg">
<path d="M12.0468 5.67333L6.34018 2.82C2.50684 0.899998 0.933509 2.47333 2.85351 6.30666L3.43351 7.46666C3.60018 7.80666 3.60018 8.2 3.43351 8.54L2.85351 9.69333C0.933509 13.5267 2.50018 15.1 6.34018 13.18L12.0468 10.3267C14.6068 9.04666 14.6068 6.95333 12.0468 5.67333ZM9.89351 8.5H6.29351C6.02018 8.5 5.79351 8.27333 5.79351 8C5.79351 7.72667 6.02018 7.5 6.29351 7.5H9.89351C10.1668 7.5 10.3935 7.72667 10.3935 8C10.3935 8.27333 10.1668 8.5 9.89351 8.5Z" fill="white"/>
</svg>
